# xmcd
#
# Track frame offsets: 
#        150
#        14496
#        32552
#        51180
#        67562
#        86028
#        116380
#        140298
#        160556
#        182398
#        206719
#        225208
#        247175
#
# Disc length: 3666 seconds
#
# Revision: 0
# Processed by: cddbd v1.5.2PL0 Copyright (c) Steve Scherf et al.
# Submitted via: ExactAudioCopy v0.95b4
#
DISCID=990e500d
DTITLE=Crazy Texas Gypsies - Too Much Fun
DYEAR=2005
DGENRE=Blues
TTITLE0=It'sTough
TTITLE1=High Heeled Woman
TTITLE2=Too Much Fun
TTITLE3=Hold Me Tight
TTITLE4=Crazy
TTITLE5=I Didn't EIxpect it
TTITLE6=Strangers
TTITLE7=You Fool You
TTITLE8=Texas Women
TTITLE9=Can't Let Go
TTITLE10=Angel Eyes
TTITLE11=Take Me Away
TTITLE12=Dancin' Like A Gypsy
EXTD=
EXTT0=
EXTT1=
EXTT2=
EXTT3=
EXTT4=
EXTT5=
EXTT6=
EXTT7=
EXTT8=
EXTT9=
EXTT10=
EXTT11=
EXTT12=
PLAYORDER=
